<svg width="21" height="20" viewBox="0 0 21 20" fill="none" xmlns="http://www.w3.org/2000/svg">
<path d="M17.5 7.09253C18.2367 7.32957 18.75 8.03267 18.75 8.84018V12.4115C18.75 13.3587 18.0438 14.1619 17.0998 14.2389C16.8173 14.262 16.5341 14.2821 16.25 14.2994V16.875L13.75 14.375C12.6219 14.375 11.5047 14.329 10.4002 14.2388C10.1516 14.2186 9.9195 14.1479 9.71245 14.0375M17.5 7.09253C17.3738 7.05193 17.2411 7.025 17.1033 7.01356C15.9977 6.9218 14.8793 6.875 13.75 6.875C12.6207 6.875 11.5023 6.9218 10.3967 7.01356C9.45416 7.09179 8.75 7.89436 8.75 8.84018V12.4114C8.75 13.1092 9.13322 13.7288 9.71245 14.0375M17.5 7.09253V5.53109C17.5 4.17991 16.5402 3.00887 15.2003 2.83492C13.4982 2.61396 11.7625 2.5 10.0002 2.5C8.23778 2.5 6.50194 2.61399 4.7997 2.83499C3.45977 3.00895 2.5 4.17998 2.5 5.53115V10.7189C2.5 12.07 3.45978 13.2411 4.7997 13.415C5.28051 13.4774 5.76399 13.5313 6.25 13.5765V17.5L9.71245 14.0375" stroke="#0F172A" stroke-width="1.5" stroke-linecap="round" stroke-linejoin="round"/>
</svg>
